<?xml version="1.0" encoding="UTF-8" standalone="no"?>
<!-- Created with Inkscape (http://www.inkscape.org/) -->

<svg
   width="210mm"
   height="297mm"
   viewBox="0 0 210 297"
   version="1.1"
   id="svg1"
   xml:space="preserve"
   inkscape:version="1.4.2 (ebf0e940d0, 2025-05-08)"
   sodipodi:docname="design_2.svg"
   xmlns:inkscape="http://www.inkscape.org/namespaces/inkscape"
   xmlns:sodipodi="http://sodipodi.sourceforge.net/DTD/sodipodi-0.dtd"
   xmlns="http://www.w3.org/2000/svg"
   xmlns:svg="http://www.w3.org/2000/svg"><sodipodi:namedview
     id="namedview1"
     pagecolor="#ffffff"
     bordercolor="#000000"
     borderopacity="0.25"
     inkscape:showpageshadow="2"
     inkscape:pageopacity="0.0"
     inkscape:pagecheckerboard="0"
     inkscape:deskcolor="#d1d1d1"
     inkscape:document-units="mm"
     inkscape:zoom="1.7360821"
     inkscape:cx="485.00011"
     inkscape:cy="510.34454"
     inkscape:window-width="2048"
     inkscape:window-height="1102"
     inkscape:window-x="0"
     inkscape:window-y="0"
     inkscape:window-maximized="1"
     inkscape:current-layer="g64"
     showguides="false"
     inkscape:export-bgcolor="#ffffffff" /><defs
     id="defs1" /><g
     inkscape:label="图层 1"
     inkscape:groupmode="layer"
     id="layer1"><rect
       style="display:inline;opacity:1;fill:#cd0000;fill-opacity:1;stroke-width:0.264583"
       id="rect1"
       width="78.021774"
       height="78.021774"
       x="10.56097"
       y="98.497093" /></g><g
     inkscape:groupmode="layer"
     id="layer2"
     inkscape:label="组件"
     style="display:none;opacity:1"><path
       id="path1"
       style="display:inline;fill:#ffffff;stroke-width:0.392416;stroke-linejoin:round"
       d="M 94.832971,67.0295 A 44.614658,44.614658 0 0 0 50.21864,111.64435 44.614658,44.614658 0 0 0 94.832971,156.2592 44.614658,44.614658 0 0 0 139.44782,111.64435 44.614658,44.614658 0 0 0 94.832971,67.0295 Z m -5.17e-4,4.957837 A 39.657475,39.657475 0 0 1 134.48998,111.64486 39.657475,39.657475 0 0 1 94.832454,151.30239 39.657475,39.657475 0 0 1 55.174927,111.64486 39.657475,39.657475 0 0 1 94.832454,71.987337 Z"
       inkscape:label="外部圆环" /><path
       id="path2"
       style="display:inline;fill:#ffffff;stroke-width:0.407547;stroke-linejoin:round"
       d="m 93.289396,49.154106 c -1.139818,0 -2.057239,0.91742 -2.057239,2.057238 v 9.463505 c 0,1.139819 0.917421,2.057239 2.057239,2.057239 h 0.250631 v 1.783354 A 11.638607,11.638607 0 0 0 83.194405,76.082178 11.638607,11.638607 0 0 0 94.832971,87.720744 11.638607,11.638607 0 0 0 106.47154,76.082178 11.638607,11.638607 0 0 0 96.126432,64.515442 v -1.783354 h 0.160714 c 1.139819,0 2.057756,-0.91742 2.057756,-2.057239 v -9.463505 c 0,-1.139818 -0.917937,-2.057238 -2.057756,-2.057238 z m 1.543058,20.246309 a 6.6814227,6.6814227 0 0 1 6.681766,6.681246 6.6814227,6.6814227 0 0 1 -6.681766,6.681246 6.6814227,6.6814227 0 0 1 -6.681246,-6.681246 6.6814227,6.6814227 0 0 1 6.681246,-6.681246 z"
       inkscape:label="脑袋" /><path
       id="path4"
       style="display:inline;fill:#ffffff;stroke-width:0.467962;stroke-linejoin:round"
       d="M 94.946659,74.677096 A 36.729012,36.729012 0 0 0 58.217635,111.40612 36.729012,36.729012 0 0 0 94.946659,148.13514 36.729012,36.729012 0 0 0 131.67568,111.40612 36.729012,36.729012 0 0 0 94.946659,74.677096 Z m 5.17e-4,1.523938 A 35.204987,35.204987 0 0 1 130.15175,111.40612 35.204987,35.204987 0 0 1 94.947176,146.61121 35.204987,35.204987 0 0 1 59.74209,111.40612 35.204987,35.204987 0 0 1 94.947176,76.201034 Z"
       inkscape:label="中间圆环" /><circle
       style="fill:#34ff00;fill-opacity:1;stroke-width:0.425397;stroke-linejoin:round"
       id="path3"
       cx="94.833092"
       cy="76.189766"
       r="14.440493"
       inkscape:label="上方挖去小圆" /><path
       id="path5"
       style="fill:#ffffff;stroke-width:0.4;stroke-linejoin:round"
       d="m 94.454183,79.99305 c 0,0 0.03567,0.145414 0.10387,0.424264 l -9.974585,5.842537 -9.461438,37.207029 h -4.407483 c -0.633233,0 -1.143083,0.50985 -1.143083,1.14309 v 0.0847 c 0,0.63324 0.50985,1.14309 1.143083,1.14309 h 3.804419 l -3.499528,13.76298 4.739245,3.6189 -3.017387,10.02213 -2.262911,-0.108 3.017387,15.46417 c 0,0 0.485026,1.13153 0.969967,0 0.484942,-1.13153 1.221086,-4.86051 1.354439,-5.37487 0.13335,-0.51436 -0.133145,-0.8572 -0.647505,-0.97151 0.06128,-0.31515 4.30586,-17.70655 8.87646,-36.4138 h 8.840288 v 3.72432 c 0,0.60093 0.48376,1.0852 1.084688,1.0852 h 1.67845 c 0.600929,0 1.085205,-0.48427 1.085205,-1.0852 v -3.72432 h 8.923486 c 4.5689,18.70031 8.81107,36.08067 8.87233,36.39571 -0.51436,0.11431 -0.78137,0.45716 -0.64802,0.97152 0.13335,0.51436 0.87001,4.24333 1.35495,5.37486 0.48494,1.13153 0.96997,0 0.96997,0 l 3.01738,-15.46417 -2.26342,0.10749 -3.01739,-10.02213 4.73925,-3.61839 -3.49488,-13.74489 h 3.80493 c 0.63324,0 1.14309,-0.50985 1.14309,-1.14309 v -0.0847 c 0,-0.63324 -0.50985,-1.14309 -1.14309,-1.14309 h -4.408 l -9.46557,-37.225116 -9.967348,-5.837886 c 0.0631,-0.25803 0.09612,-0.392741 0.09612,-0.392741 l -0.383439,0.224276 z m 0.401009,1.639177 c 1.345272,5.501017 5.860438,23.964803 10.226768,41.834653 h -8.344196 v -4.00337 c 0,-0.60093 -0.484276,-1.08469 -1.085205,-1.08469 h -1.67845 c -0.600928,0 -1.084688,0.48376 -1.084688,1.08469 v 4.00337 H 84.628426 C 88.998211,105.5829 93.515923,87.108695 94.855192,81.632227 Z"
       inkscape:label="圆规" /><path
       style="fill:#59ff00;fill-opacity:1;stroke-width:0.4;stroke-linejoin:round"
       d="m 68.861757,133.62845 -3.232947,3.34071 7.543541,6.46589 -2.801887,10.56096 8.405661,6.03483 4.741654,-20.36756 z"
       id="path6"
       inkscape:label="圆规左腿挖去齿轮" /><path
       style="fill:#34ff00;fill-opacity:1;stroke-width:0.4;stroke-linejoin:round"
       d="m 105.60958,138.3701 6.57365,26.61792 7.32802,-10.02213 -3.44848,-12.17743 7.11248,-6.03483 -3.44847,-4.41836 z"
       id="path7"
       inkscape:label="圆规右腿挖去齿轮" /><path
       style="fill:#34ff00;fill-opacity:1;stroke-width:0.4;stroke-linejoin:round"
       d="m 83.478496,87.174257 c 0.609611,0.990618 3.276655,3.505261 7.239122,4.381574 -0.571511,2.781347 -2.32414,9.525159 -2.32414,9.525159 l 2.171737,3.54336 -1.104919,1.60023 -2.857547,-4.49588 2.400339,-9.029851 c 0,0 -5.105484,-2.552742 -5.905597,-3.467158 -0.800114,-0.914413 0.381005,-2.057434 0.381005,-2.057434 z"
       id="path8"
       inkscape:label="圆规左腿镂空" /><path
       style="fill:#34ff00;fill-opacity:1;stroke-width:0.4;stroke-linejoin:round"
       d="m 116.76324,127.75526 -2.96353,1.99365 c 0,0 -1.40094,1.34706 -1.02377,2.85577 0.37718,1.50871 1.72424,5.87318 1.72424,5.87318 0,0 0.25894,0.22751 -0.38877,0.66567 -0.64771,0.43815 -5.06739,3.75291 -5.06739,3.75291 l 0.76839,1.40073 6.57366,-5.01107 -1.88589,-6.68142 c 0,0 -0.61965,-1.18542 1.56259,-2.34389 2.18224,-1.15847 0.70047,-2.50553 0.70047,-2.50553 z"
       id="path9"
       inkscape:label="圆规右腿镂空" /><path
       style="fill:#34ff00;fill-opacity:1;stroke-width:0.4;stroke-linejoin:round"
       d="m 52.57888,82.754583 8.229738,3.048053 4.114869,-4.267272 -4.267272,-7.924932 7.924932,-6.096103 7.010517,7.010516 4.724479,-3.200453 -0.152403,-8.534542 7.620127,-1.828829 0.914416,8.991748 11.887397,0.457208 1.37163,-9.448956 8.53454,2.133634 0.45721,9.906166 4.87688,1.676427 6.2485,-5.943698 7.77253,5.48649 -3.35285,8.534543 3.65766,3.962466 7.46772,-3.200453 4.72448,8.991751 -6.40091,5.638895 1.98124,5.791298 7.46772,0.1524 0.60961,10.21097 -8.07733,1.52403 -0.76202,6.2485 6.70572,4.11487 -3.81007,9.14415 -7.31532,-1.82883 -4.57208,5.9437 4.57208,5.6389 -7.01052,6.85811 -5.9437,-4.41967 -11.12538,4.26727 2.89565,6.85811 -10.05857,2.74325 -3.352858,-7.16292 -7.010519,0.60961 -2.286037,6.55331 -10.515777,-1.82883 1.828831,-7.16292 -10.820579,-4.87688 -5.181688,4.11487 -8.229737,-6.40091 4.419674,-6.40091 -4.267271,-5.33409 -7.010519,1.67643 -3.962467,-9.75376 7.010519,-3.81007 -1.371623,-6.55331 -7.620127,-1.21922 0.60961,-10.21097 7.924933,-0.76201 2.133634,-6.400907 -6.400906,-4.267272 z"
       id="path10"
       inkscape:label="齿轮轮廓" /><circle
       style="fill:#fbc80b;fill-opacity:1;stroke-width:0.878535;stroke-linejoin:round"
       id="path45"
       cx="94.834"
       cy="111.644"
       r="42.481365"
       inkscape:label="齿轮中圆" /><circle
       style="display:inline;opacity:1;fill:#fbc80b;fill-opacity:1;stroke-width:1.039;stroke-linejoin:round"
       id="path45-5"
       cx="94.834366"
       cy="111.64436"
       r="50.240437"
       inkscape:label="齿轮齿大圆" /></g><g
     inkscape:groupmode="layer"
     id="g64"
     inkscape:label="一体"
     style="display:inline;opacity:1"><path
       id="path55"
       style="display:inline;fill:#ffce00;fill-opacity:1;stroke-width:0.220899;stroke-linejoin:round"
       inkscape:label="总Logo"
       d="m 39.771916,21.665893 c -0.64163,0 -1.15806,0.51643 -1.15806,1.15806 v 5.327205 c 0,0.64163 0.51643,1.15806 1.15806,1.15806 h 0.14108 v 1.00388 a 6.5516044,6.5516044 0 0 0 -5.82375,6.51115 6.5516044,6.5516044 0 0 0 6.55158,6.55158 6.5516044,6.5516044 0 0 0 6.55158,-6.55158 6.5516044,6.5516044 0 0 0 -5.82347,-6.51115 v -1.00388 h 0.0905 c 0.64163,0 1.15835,-0.51643 1.15835,-1.15806 v -5.327205 c 0,-0.64163 -0.51672,-1.15806 -1.15835,-1.15806 z m -3.04628,7.167995 a 28.281346,28.281346 0 0 0 -4.33436,0.95793 l 0.0591,3.30953 a 25.114482,25.114482 0 0 0 -3.80813,1.67877 l -2.323401,-2.32339 h -2.93e-4 a 28.281346,28.281346 0 0 0 -4.670929,3.43229 l 1.552516,2.88308 a 25.114482,25.114482 0 0 0 -2.75247,3.13878 l -3.076814,-1.13974 a 28.281346,28.281346 0 0 0 -2.942135,5.45519 l 2.697197,1.79775 a 25.114482,25.114482 0 0 0 -1.115296,3.91227 l -3.275209,0.31504 a 28.281346,28.281346 0 0 0 -0.374967,4.59152 28.281346,28.281346 0 0 0 0.03344,1.37594 l 3.203651,0.51256 a 25.114482,25.114482 0 0 0 0.613791,3.93555 l -2.869991,1.55979 a 28.281346,28.281346 0 0 0 2.227981,5.70099 l 3.18794,-0.76244 a 25.114482,25.114482 0 0 0 2.239323,3.32466 l -1.870177,2.70855 a 28.281346,28.281346 0 0 0 4.323022,4.10019 l 2.567163,-2.0386 a 25.114482,25.114482 0 0 0 1.498414,0.99399 l 0.750794,-2.83043 a 22.323985,22.323985 0 0 1 -9.949249,-18.58046 22.323985,22.323985 0 0 1 14.240279,-20.80903 8.1288421,8.1288421 0 0 1 4.25814,-6.32148 z m 7.84928,0.003 -0.12567,0.86658 a 8.1288421,8.1288421 0 0 1 4.27589,6.33137 22.323985,22.323985 0 0 1 14.23941,20.80873 22.323985,22.323985 0 0 1 -10.05601,18.65086 l 0.79298,2.80018 a 25.114482,25.114482 0 0 0 1.41958,-0.93146 l 2.65879,1.97694 a 28.281346,28.281346 0 0 0 4.08914,-3.809 l -2.02668,-2.49968 a 25.114482,25.114482 0 0 0 2.62331,-3.7613 l 3.17689,0.79415 a 28.281346,28.281346 0 0 0 2.15118,-5.30945 l -2.8121,-1.7256 a 25.114482,25.114482 0 0 0 0.67633,-3.9754 l 3.21965,-0.60739 a 28.281346,28.281346 0 0 0 0.0454,-1.60313 28.281346,28.281346 0 0 0 -0.32319,-4.26223 l -3.22022,-0.0657 a 25.114482,25.114482 0 0 0 -0.98033,-3.81308 l 2.54768,-2.24456 a 28.281346,28.281346 0 0 0 -2.72687,-5.2312 l -2.96511,1.27093 a 25.114482,25.114482 0 0 0 -2.39089,-2.93603 l 1.26308,-3.21557 a 28.281346,28.281346 0 0 0 -4.39807,-3.42327 l -2.37663,2.26055 a 25.114482,25.114482 0 0 0 -3.71766,-1.78872 l -0.15767,-3.41687 a 28.281346,28.281346 0 0 0 -4.9019,-1.14061 28.281346,28.281346 0 0 0 -3e-4,0 z m -3.93438,4.22644 a 3.7611063,3.7611063 0 0 1 3.7613,3.76101 3.7611063,3.7611063 0 0 1 -3.7613,3.761 3.7611063,3.7611063 0 0 1 -3.76101,-3.761 3.7611063,3.7611063 0 0 1 3.76101,-3.76101 z m 8.09246,4.59268 a 8.1288421,8.1288421 0 0 1 -0.13207,0.87647 19.817591,19.817591 0 0 1 11.92154,18.1767 19.817591,19.817591 0 0 1 -4.88998,13.0348 l 0.537,0.68827 a 20.675495,20.675495 0 0 0 5.21083,-13.72307 20.675495,20.675495 0 0 0 -12.64732,-19.05317 z m -16.1791,0.0521 a 20.675495,20.675495 0 0 0 -12.524573,19.0011 20.675495,20.675495 0 0 0 5.024077,13.50955 l 0.599251,-0.61932 a 19.817591,19.817591 0 0 1 -4.765185,-12.89023 19.817591,19.817591 0 0 1 11.80402,-18.12521 8.1288421,8.1288421 0 0 1 -0.13759,-0.87589 z m 13.88828,4.87107 a 8.1288421,8.1288421 0 0 1 -4.57319,2.34143 c 1.1614,4.74984 2.87071,11.74112 4.5412,18.57784 h -4.69711 v -2.25357 c 0,-0.33828 -0.27261,-0.6106 -0.61089,-0.6106 h -0.94483 c -0.33828,0 -0.6106,0.27232 -0.6106,0.6106 v 2.25357 h -4.65027 c 0.83789,-3.42921 1.68562,-6.89709 2.46884,-10.1011 v -2.9e-4 l -1.35732,-2.13548 1.35092,-5.08313 c 0,0 -2.08938,-1.04456 -2.98432,-1.6715 l -4.82946,18.9915 h -2.481063 c -0.356458,0 -0.643462,0.28701 -0.643462,0.64347 v 0.0477 c 0,0.35647 0.287004,0.64347 0.643462,0.64347 h 2.141583 l -1.969954,7.74746 2.667814,2.03715 -1.69854,5.64165 -1.273842,-0.0608 1.698542,8.70509 c 0,0 0.27303,0.63696 0.54602,0 0.27298,-0.63696 0.68737,-2.73608 0.76244,-3.02562 0.0751,-0.28955 -0.0749,-0.48254 -0.36449,-0.54688 0.0345,-0.17741 2.42385,-9.96738 4.99673,-20.49806 h 4.97637 v 2.09649 c 0,0.33828 0.27232,0.61089 0.6106,0.61089 h 0.94483 c 0.33828,0 0.61089,-0.27261 0.61089,-0.61089 v -2.09649 h 5.0232 c 0.79838,3.26773 1.57911,6.46384 2.27714,9.32324 0.7085,-0.53015 2.20338,-1.64637 2.47961,-1.83323 0.36461,-0.24665 0.21875,-0.37467 0.21875,-0.37467 0,0 -0.75811,-2.45676 -0.97043,-3.30604 -0.21232,-0.84929 0.57627,-1.60779 0.57627,-1.60779 l 1.147,-0.77146 -0.36362,-1.43005 h 2.14188 c 0.35646,0 0.64346,-0.287 0.64346,-0.64347 v -0.0477 c 0,-0.35646 -0.287,-0.64347 -0.64346,-0.64347 h -2.48136 z m -11.58264,0.0204 -0.23563,0.9268 c 0.64367,0.66286 1.9465,1.6208 3.70021,2.00864 -0.32171,1.56568 -1.30816,5.36211 -1.30816,5.36211 l 0.68652,1.12024 c 0.64714,-2.64722 1.24012,-5.07302 1.73403,-7.09294 a 8.1288421,8.1288421 0 0 1 -4.57697,-2.32485 z m 17.85642,24.65265 c -0.0389,0.0237 -0.0803,0.0472 -0.12451,0.0707 -1.22842,0.65213 -0.87967,1.31952 -0.87967,1.31952 l 1.06178,3.761 -3.5312,2.69167 c 1.43284,5.87027 2.46574,10.10972 2.48833,10.2259 -0.28954,0.0643 -0.43985,0.25735 -0.36478,0.54689 0.0751,0.28954 0.48975,2.38866 0.76273,3.02562 0.27298,0.63696 0.54601,0 0.54601,0 l 1.69855,-8.70509 -1.27413,0.0605 -1.69855,-5.64165 2.66782,-2.03687 z m -19.05404,7.98105 -0.19606,0.84272 a 20.675495,20.675495 0 0 0 7.23896,1.30875 20.675495,20.675495 0 0 0 7.05367,-1.24039 l -0.20682,-0.83778 a 19.817591,19.817591 0 0 1 -6.84655,1.22032 19.817591,19.817591 0 0 1 -7.0432,-1.29362 z m -0.60681,2.60614 -1.35791,5.83365 a 28.281346,28.281346 0 0 0 1.62815,0.489 h 2.9e-4 l 3.94776,0.68651 1.04578,-2.99827 a 25.114482,25.114482 0 0 0 2.32165,0.10763 25.114482,25.114482 0 0 0 2.3487,-0.10996 l 1.40445,3.0006 5.16604,-1.40881 -1.37885,-5.58406 a 22.323985,22.323985 0 0 1 -7.54063,1.31195 22.323985,22.323985 0 0 1 -7.58543,-1.32824 z" /><path
       id="path55-3"
       style="display:inline;fill:#ffd900;fill-opacity:1;stroke-width:0.220899;stroke-linejoin:round"
       inkscape:label="总Logo"
       d="m 66.417199,104.97327 c -0.55567,-0.32082 -1.26112,-0.13179 -1.58194,0.42388 l -2.6636,4.61349 c -0.32081,0.55567 -0.13179,1.26112 0.42388,1.58194 l 0.12218,0.0705 -0.50194,0.86938 a 6.5516044,6.5516044 0 0 0 -8.29909,2.72695 6.5516044,6.5516044 0 0 0 2.39804,8.94963 6.5516044,6.5516044 0 0 0 8.94963,-2.39805 6.5516044,6.5516044 0 0 0 -1.7877,-8.55056 l 0.50194,-0.86938 0.0784,0.0452 c 0.55566,0.32081 1.26137,0.13193 1.58219,-0.42374 l 2.6636,-4.61349 c 0.32081,-0.55566 0.13153,-1.26127 -0.42413,-1.58208 z m -6.22215,4.68452 a 28.281346,28.281346 0 0 0 -4.23263,-1.33759 l -1.60358,2.89569 a 25.114482,25.114482 0 0 0 -4.13733,-0.45021 l -0.85042,-3.17381 -2.5e-4,-1.5e-4 a 28.281346,28.281346 0 0 0 -5.761285,0.63699 l -0.097,3.27308 a 25.114482,25.114482 0 0 0 -3.9531,1.34203 l -2.09474,-2.52546 a 28.281346,28.281346 0 0 0 -5.27555,3.25327 l 1.43697,2.9055 a 25.114482,25.114482 0 0 0 -2.92201,2.83047 l -2.99394,-1.36477 a 28.281346,28.281346 0 0 0 -2.62049,3.78889 28.281346,28.281346 0 0 0 -0.65901,1.20832 l 2.51816,2.04572 a 25.114482,25.114482 0 0 0 -1.43621,3.71518 l -3.26539,-0.0842 a 28.281346,28.281346 0 0 0 -0.921,6.05119 l 3.14206,0.93368 a 25.114482,25.114482 0 0 0 0.27698,3.9989 l -2.9739,1.41059 a 28.281346,28.281346 0 0 0 1.69375,5.71237 l 3.24254,-0.48189 a 25.114482,25.114482 0 0 0 0.80066,1.61003 l 2.06542,-2.07583 a 22.323985,22.323985 0 0 1 0.67393,-21.06577 22.323985,22.323985 0 0 1 22.736955,-10.90102 8.1288421,8.1288421 0 0 1 6.84839,-3.34549 z m 6.79618,3.92724 -0.54213,0.68764 a 8.1288421,8.1288421 0 0 1 0.53735,7.62108 22.323985,22.323985 0 0 1 1.92733,25.1406 22.323985,22.323985 0 0 1 -18.0342,11.1241 l -0.71335,2.82152 a 25.114482,25.114482 0 0 0 1.69514,-0.0969 l 1.3141,3.04147 a 28.281346,28.281346 0 0 0 5.4458,-1.25412 l -0.50531,-3.17812 a 25.114482,25.114482 0 0 0 4.1525,-1.94573 l 2.35419,2.2762 a 28.281346,28.281346 0 0 0 4.5177,-3.52253 l -1.57255,-2.90046 a 25.114482,25.114482 0 0 0 2.57342,-3.10464 l 3.092,1.08381 a 28.281346,28.281346 0 0 0 0.84088,-1.36565 28.281346,28.281346 0 0 0 1.85122,-3.85279 l -2.75594,-1.66701 a 25.114482,25.114482 0 0 0 1.05755,-3.79239 l 3.32864,-0.67 a 28.281346,28.281346 0 0 0 0.25406,-5.89379 l -3.20333,-0.3819 a 25.114482,25.114482 0 0 0 -0.60255,-3.73812 l 2.70164,-2.15323 a 28.281346,28.281346 0 0 0 -2.09721,-5.16367 l -3.1885,0.76937 a 25.114482,25.114482 0 0 0 -2.32523,-3.4079 l 1.57189,-3.03793 a 28.281346,28.281346 0 0 0 -3.67486,-3.43875 28.281346,28.281346 0 0 0 -2.6e-4,-1.5e-4 z m -5.5205,1.69301 a 3.7611063,3.7611063 0 0 1 1.37688,5.13778 3.7611063,3.7611063 0 0 1 -5.13788,1.37648 3.7611063,3.7611063 0 0 1 -1.37663,-5.13763 3.7611063,3.7611063 0 0 1 5.13763,-1.37663 z m 4.71194,8.02361 a 8.1288421,8.1288421 0 0 1 -0.55261,0.69301 19.817591,19.817591 0 0 1 1.23601,21.70226 19.817591,19.817591 0 0 1 -10.75224,8.84348 l 0.12092,0.86456 a 20.675495,20.675495 0 0 0 11.37424,-9.27911 20.675495,20.675495 0 0 0 -1.42632,-22.8242 z m -14.03756,-8.04443 a 20.675495,20.675495 0 0 0 -20.347145,10.19315 20.675495,20.675495 0 0 0 -2.40379,14.21166 l 0.82862,-0.23673 a 19.817591,19.817591 0 0 1 2.31834,-13.54586 19.817591,19.817591 0 0 1 19.285185,-9.79488 8.1288421,8.1288421 0 0 1 0.31879,-0.82734 z m 9.59207,11.16261 a 8.1288421,8.1288421 0 0 1 -5.13122,-0.25886 c -1.36912,4.69419 -3.38445,11.60347 -5.35612,18.35949 l -4.067815,-2.34856 1.12679,-1.95165 c 0.16914,-0.29296 0.0692,-0.6651 -0.22375,-0.83424 l -0.81825,-0.47241 c -0.29296,-0.16914 -0.66495,-0.0695 -0.83409,0.22349 l -1.12679,1.95165 -4.02725,-2.32513 c 2.44024,-2.55084 4.90834,-5.13025 7.18863,-7.51339 l 1.4e-4,-2.5e-4 -0.10773,-2.52804 3.711495,-3.72666 c 0,0 -1.28718,-1.94931 -1.74875,-2.93973 l -13.678185,14.0324 -2.14866,-1.24053 c -0.3087,-0.17823 -0.70075,-0.0732 -0.87898,0.23553 l -0.0239,0.0413 c -0.17824,0.30871 -0.0732,0.70076 0.23551,0.87899 l 1.85467,1.07079 -5.57976,5.72452 1.29182,3.09813 -4.29181,4.03654 -1.07278,-0.68957 -2.88157,8.3881 c 0,0 -0.082,0.68813 0.47287,0.27301 0.55489,-0.41514 1.96332,-2.02583 2.17311,-2.23905 0.20981,-0.21321 0.1764,-0.45534 -0.0422,-0.65585 0.11858,-0.1364 7.08281,-7.42008 14.57632,-15.25348 l 4.30967,2.48818 -1.04825,1.81562 c -0.16914,0.29296 -0.0696,0.6652 0.22335,0.83434 l 0.81825,0.47242 c 0.29296,0.16914 0.66535,0.0694 0.83449,-0.2236 l 1.04825,-1.81562 4.350205,2.5116 c -0.94244,3.22913 -1.86437,6.38741 -2.689545,9.21274 0.878645,-0.10488 2.731355,-0.32411 3.064015,-0.34782 0.43908,-0.0313 0.37677,-0.2151 0.37677,-0.2151 0,0 0.57184,-2.50667 0.81261,-3.34833 0.24077,-0.84167 1.30296,-1.10425 1.30296,-1.10425 l 1.37906,-0.0946 0.40012,-1.42027 1.85492,1.07094 c 0.3087,0.17823 0.70076,0.0732 0.879,-0.23552 l 0.0238,-0.0413 c 0.17823,-0.3087 0.0732,-0.70077 -0.23553,-0.879 l -2.14892,-1.24068 z m -10.04106,-5.77365 -0.66747,0.68482 c 0.22601,0.89588 0.87532,2.3769 2.20016,3.58963 -1.06145,1.19507 -3.81395,3.98965 -3.81395,3.98965 l 0.0344,1.31341 c 1.88405,-1.96899 3.61048,-3.7733 5.04818,-5.27565 a 8.1288421,8.1288421 0 0 1 -2.80134,-4.30186 z m 3.13778,30.27803 c -0.0455,0.001 -0.0931,7.3e-4 -0.14317,-10e-4 -1.38991,-0.0494 -1.42158,0.70291 -1.42158,0.70291 l -0.96097,3.78801 -4.403945,0.56545 c -1.69426,5.80022 -2.91946,9.98815 -2.95799,10.10006 -0.2829,-0.0891 -0.5096,0.003 -0.58935,0.29123 -0.0797,0.2883 -0.7702,2.31351 -0.85227,3.00163 -0.0821,0.68811 0.47286,0.273 0.47286,0.273 l 5.823525,-6.68955 -1.133675,-0.58467 1.349835,-5.73509 3.32883,-0.43007 z m -20.491795,-2.61523 -0.59116,0.63179 a 20.675495,20.675495 0 0 0 5.61475,4.75289 20.675495,20.675495 0 0 0 6.72885,2.45263 l 0.23978,-0.82895 a 19.817591,19.817591 0 0 1 -6.53944,-2.36645 19.817591,19.817591 0 0 1 -5.45278,-4.64191 z m -1.82859,1.95358 -4.09281,4.37313 a 28.281346,28.281346 0 0 0 1.16552,1.23757 l 2.5e-4,1.4e-4 3.07561,2.56842 2.40481,-2.07369 a 25.114482,25.114482 0 0 0 1.95679,1.25403 25.114482,25.114482 0 0 0 2.08901,1.07913 l -0.28401,3.30082 5.17833,1.36295 1.59791,-5.52536 a 22.323985,22.323985 0 0 1 -7.18635,-2.63414 22.323985,22.323985 0 0 1 -5.90506,-4.943 z" /><path
       id="path55-3-3"
       style="display:inline;fill:#cd0000;fill-opacity:1;stroke-width:0.2209;stroke-linejoin:round"
       inkscape:label="总Logo"
       d="m 163.48165,104.61688 c -0.55568,-0.32082 -1.26113,-0.13179 -1.58195,0.42388 l -2.66361,4.61349 c -0.32082,0.55567 -0.1318,1.26112 0.42388,1.58194 l 0.12217,0.0705 -0.50194,0.86938 a 6.5516376,6.5516044 0 0 0 -8.29912,2.72695 6.5516376,6.5516044 0 0 0 2.39804,8.94963 6.5516376,6.5516044 0 0 0 8.94968,-2.39805 6.5516376,6.5516044 0 0 0 -1.78771,-8.55056 l 0.50194,-0.86938 0.0784,0.0452 c 0.55567,0.32081 1.26138,0.13193 1.58222,-0.42374 l 2.6636,-4.61349 c 0.3208,-0.55566 0.13153,-1.26127 -0.42413,-1.58208 z m -6.22218,4.68452 a 28.28149,28.281346 0 0 0 -4.23264,-1.33759 l -1.60361,2.89569 a 25.114609,25.114482 0 0 0 -4.13735,-0.45021 l -0.85042,-3.17381 -2.5e-4,-1.5e-4 a 28.28149,28.281346 0 0 0 -5.76131,0.63699 l -0.097,3.27308 a 25.114609,25.114482 0 0 0 -3.95312,1.34203 l -2.09474,-2.52546 a 28.28149,28.281346 0 0 0 -5.27559,3.25327 l 1.43698,2.9055 a 25.114609,25.114482 0 0 0 -2.92202,2.83047 l -2.99396,-1.36477 a 28.28149,28.281346 0 0 0 -2.6205,3.78889 28.28149,28.281346 0 0 0 -0.65901,1.20832 l 2.51817,2.04572 a 25.114609,25.114482 0 0 0 -1.43622,3.71518 l -3.26541,-0.0842 a 28.28149,28.281346 0 0 0 -0.921,6.05119 l 3.14208,0.93368 a 25.114609,25.114482 0 0 0 0.27698,3.9989 l -2.97392,1.41059 a 28.28149,28.281346 0 0 0 1.69377,5.71237 l 3.24255,-0.48189 a 25.114609,25.114482 0 0 0 0.80066,1.61003 l 2.06543,-2.07583 a 22.324098,22.323985 0 0 1 0.67394,-21.06577 22.324098,22.323985 0 0 1 22.73706,-10.90102 8.1288831,8.1288421 0 0 1 6.84842,-3.34549 z m 6.79621,3.92724 -0.54214,0.68764 a 8.1288831,8.1288421 0 0 1 0.53736,7.62108 22.324098,22.323985 0 0 1 1.92735,25.1406 22.324098,22.323985 0 0 1 -18.0343,11.1241 l -0.71336,2.82152 a 25.114609,25.114482 0 0 0 1.69515,-0.0969 l 1.31411,3.04147 a 28.28149,28.281346 0 0 0 5.44582,-1.25412 l -0.5053,-3.17812 a 25.114609,25.114482 0 0 0 4.15253,-1.94573 l 2.35418,2.2762 a 28.28149,28.281346 0 0 0 4.51773,-3.52253 l -1.57255,-2.90046 a 25.114609,25.114482 0 0 0 2.57342,-3.10464 l 3.09202,1.08381 a 28.28149,28.281346 0 0 0 0.84088,-1.36565 28.28149,28.281346 0 0 0 1.85125,-3.85279 l -2.75597,-1.66701 a 25.114609,25.114482 0 0 0 1.05755,-3.79239 l 3.32866,-0.67 a 28.28149,28.281346 0 0 0 0.25407,-5.89379 l -3.20335,-0.3819 a 25.114609,25.114482 0 0 0 -0.60254,-3.73812 l 2.70164,-2.15323 a 28.28149,28.281346 0 0 0 -2.09721,-5.16367 l -3.18853,0.76937 a 25.114609,25.114482 0 0 0 -2.32523,-3.4079 l 1.5719,-3.03793 a 28.28149,28.281346 0 0 0 -3.67489,-3.43875 28.28149,28.281346 0 0 0 -2.6e-4,-1.5e-4 z m -5.52052,1.69301 a 3.7611253,3.7611063 0 0 1 1.37687,5.13778 3.7611253,3.7611063 0 0 1 -5.13788,1.37648 3.7611253,3.7611063 0 0 1 -1.37666,-5.13763 3.7611253,3.7611063 0 0 1 5.13767,-1.37663 z m 4.71195,8.02361 a 8.1288831,8.1288421 0 0 1 -0.55261,0.69301 19.817691,19.817591 0 0 1 1.23602,21.70226 19.817691,19.817591 0 0 1 -10.75229,8.84348 l 0.12091,0.86456 a 20.6756,20.675495 0 0 0 11.3743,-9.27911 20.6756,20.675495 0 0 0 -1.42633,-22.8242 z m -14.03762,-8.04443 a 20.6756,20.675495 0 0 0 -20.34725,10.19315 20.6756,20.675495 0 0 0 -2.4038,14.21166 l 0.82863,-0.23673 a 19.817691,19.817591 0 0 1 2.31835,-13.54586 19.817691,19.817591 0 0 1 19.28527,-9.79488 8.1288831,8.1288421 0 0 1 0.3188,-0.82734 z m 9.59212,11.16261 a 8.1288831,8.1288421 0 0 1 -5.13125,-0.25886 c -1.36913,4.69419 -3.38447,11.60347 -5.35615,18.35949 l -4.06783,-2.34856 1.1268,-1.95165 c 0.16914,-0.29296 0.0692,-0.6651 -0.22376,-0.83424 l -0.81825,-0.47241 c -0.29296,-0.16914 -0.66495,-0.0695 -0.83409,0.22349 l -1.1268,1.95165 -4.02727,-2.32513 c 2.44026,-2.55084 4.90836,-5.13025 7.18867,-7.51339 l 1.4e-4,-2.5e-4 -0.10773,-2.52804 3.7115,-3.72666 c 0,0 -1.28718,-1.94931 -1.74875,-2.93973 l -13.67825,14.0324 -2.14867,-1.24053 c -0.30871,-0.17823 -0.70076,-0.0732 -0.87899,0.23553 l -0.0238,0.0413 c -0.17824,0.30871 -0.0732,0.70076 0.2355,0.87899 l 1.85468,1.07079 -5.57979,5.72452 1.29183,3.09813 -4.29183,4.03654 -1.07278,-0.68957 -2.8816,8.3881 c 0,0 -0.0819,0.68813 0.47288,0.27301 0.5549,-0.41514 1.96333,-2.02583 2.17312,-2.23905 0.20981,-0.21321 0.1764,-0.45534 -0.0422,-0.65585 0.11858,-0.1364 7.08285,-7.42008 14.5764,-15.25348 l 4.30968,2.48818 -1.04825,1.81562 c -0.16914,0.29296 -0.0696,0.6652 0.22335,0.83434 l 0.81825,0.47242 c 0.29297,0.16914 0.66536,0.0694 0.8345,-0.2236 l 1.04825,-1.81562 4.35023,2.5116 c -0.94244,3.22913 -1.86438,6.38741 -2.68956,9.21274 0.87865,-0.10488 2.73138,-0.32411 3.06403,-0.34782 0.43909,-0.0313 0.37677,-0.2151 0.37677,-0.2151 0,0 0.57184,-2.50667 0.81262,-3.34833 0.24076,-0.84167 1.30296,-1.10425 1.30296,-1.10425 l 1.37907,-0.0946 0.40013,-1.42027 1.85492,1.07094 c 0.3087,0.17823 0.70077,0.0732 0.87901,-0.23552 l 0.0238,-0.0413 c 0.17823,-0.3087 0.0732,-0.70077 -0.23554,-0.879 l -2.14892,-1.24068 z m -10.04111,-5.77365 -0.66748,0.68482 c 0.22601,0.89588 0.87533,2.3769 2.20017,3.58963 -1.06146,1.19507 -3.81397,3.98965 -3.81397,3.98965 l 0.0344,1.31341 c 1.88406,-1.96899 3.6105,-3.7733 5.04822,-5.27565 a 8.1288831,8.1288421 0 0 1 -2.80136,-4.30186 z m 3.13778,30.27803 c -0.0455,10e-4 -0.0931,7.3e-4 -0.14316,-0.001 -1.38992,-0.0494 -1.42159,0.70291 -1.42159,0.70291 l -0.96098,3.78801 -4.40396,0.56545 c -1.69427,5.80022 -2.91947,9.98815 -2.958,10.10006 -0.28289,-0.0891 -0.50959,0.003 -0.58936,0.29123 -0.0797,0.2883 -0.7702,2.31351 -0.85227,3.00163 -0.082,0.68811 0.47286,0.273 0.47286,0.273 l 5.82355,-6.68955 -1.13367,-0.58467 1.34984,-5.73509 3.32884,-0.43007 z m -20.49188,-2.61523 -0.59116,0.63179 a 20.6756,20.675495 0 0 0 5.61477,4.75289 20.6756,20.675495 0 0 0 6.72889,2.45263 l 0.23977,-0.82895 a 19.817691,19.817591 0 0 1 -6.53947,-2.36645 19.817691,19.817591 0 0 1 -5.4528,-4.64191 z m -1.8286,1.95358 -4.09283,4.37313 a 28.28149,28.281346 0 0 0 1.16553,1.23757 l 2.4e-4,1.4e-4 3.07562,2.56842 2.40483,-2.07369 a 25.114609,25.114482 0 0 0 1.9568,1.25403 25.114609,25.114482 0 0 0 2.08902,1.07913 l -0.28401,3.30082 5.17836,1.36295 1.59791,-5.52536 a 22.324098,22.323985 0 0 1 -7.18638,-2.63414 22.324098,22.323985 0 0 1 -5.90509,-4.943 z"
       inkscape:export-filename="DokiSeven.png"
       inkscape:export-xdpi="320"
       inkscape:export-ydpi="320" /></g></svg>
